<?xml version="1.0" encoding="UTF-8"?>
<svg version="1.1" xmlns="http://www.w3.org/2000/svg" width="175" height="168">
<path d="M0 0 C2.4375 0.8125 2.4375 0.8125 4.4375 2.8125 C4.85721194 8.79339508 3.93586149 14.03310567 2.4375 19.8125 C2.81261719 18.99265625 3.18773438 18.1728125 3.57421875 17.328125 C4.08597656 16.25046875 4.59773438 15.1728125 5.125 14.0625 C5.87330078 12.46148438 5.87330078 12.46148438 6.63671875 10.828125 C8.56195267 7.60408903 10.29871465 5.84699003 13.4375 3.8125 C17.73018293 4.10518293 17.73018293 4.10518293 19.4375 5.8125 C19.80078125 8.5625 19.80078125 8.5625 19.4375 11.8125 C17.35546875 14.375 17.35546875 14.375 14.625 16.8125 C10.82497728 20.23416548 8.49533894 23.10886814 6.4375 27.8125 C10.19997089 24.15295385 13.72234282 20.47938768 17 16.375 C19.42107052 13.56132344 19.9920181 12.90495851 23.75 12.125 C26.4375 12.8125 26.4375 12.8125 28.4375 15.8125 C28.25 18.375 28.25 18.375 27.4375 20.8125 C26.4475 21.4725 25.4575 22.1325 24.4375 22.8125 C25.55125 22.77125 26.665 22.73 27.8125 22.6875 C31.4375 22.8125 31.4375 22.8125 33.4375 24.8125 C33.30108395 28.01827721 33.10438089 30.062259 30.9375 32.5 C28.63530366 33.70865308 26.60465482 34.38997455 24.125 35.125 C17.04955552 37.37891827 12.2472613 41.97732032 8.56640625 48.3671875 C4.04811149 58.15422044 2.76121495 68.16227818 2.4375 78.8125 C2.78941406 77.71292969 3.14132813 76.61335938 3.50390625 75.48046875 C8.55162206 60.1707415 16.01301627 45.28626814 30.41796875 36.75 C38.10660266 33.18080824 46.60231459 32.33736513 54.87890625 34.4296875 C60.95105361 37.11521647 65.66338248 42.15102341 68.5390625 48.0859375 C71.48068441 56.14103301 70.85098741 63.03326474 67.4375 70.8125 C62.67703215 78.19943286 55.69442793 80.96069377 47.4375 82.8125 C42.78843067 83.26889094 38.14055365 83.24874274 33.47265625 83.25195312 C25.06114278 83.42253627 18.54699778 85.86812378 12.4375 91.8125 C6.91384078 99.19936367 4.25199351 106.69017266 3.4375 115.8125 C3.85708984 114.88630859 3.85708984 114.88630859 4.28515625 113.94140625 C9.82549847 102.23721062 16.70199126 93.18962391 29.0625 88.5 C42.61584962 84.025538 55.77459252 85.10560839 68.75 91.0625 C76.38546745 95.16824895 81.31124383 100.7392011 84.4375 108.8125 C86.7544748 116.53574933 85.69191937 124.54198864 82.4375 131.8125 C78.11799692 138.46316347 72.77059635 142.55147229 65.05859375 144.375 C56.64755995 145.63862949 49.63431737 143.6857055 42.75 138.75 C37.97911214 134.77005298 34.76689948 130.00636319 31.4375 124.8125 C26.94517148 118.03684291 26.94517148 118.03684291 19.5625 115 C16.70938015 114.52448002 15.54564448 114.76181243 12.87890625 116.01171875 C7.10085503 120.27360933 3.97301474 127.41634636 2.73828125 134.36328125 C2.14817586 139.16842515 1.74809907 143.98186707 1.4375 148.8125 C0.1175 148.8125 -1.2025 148.8125 -2.5625 148.8125 C-2.58828125 148.01328125 -2.6140625 147.2140625 -2.640625 146.390625 C-3.23303568 134.91940003 -5.37721075 124.34858736 -13.5625 115.8125 C-16.72232889 114.23258556 -19.06305861 114.46829265 -22.5625 114.8125 C-28.57550234 117.81900117 -31.58333382 122.46744783 -35.22387695 127.93017578 C-40.93556273 136.46549341 -47.25857446 142.6367707 -57.5625 144.8125 C-65.39671157 145.42694797 -71.78841952 143.58024582 -77.875 138.625 C-83.85440293 132.99102075 -86.18008159 126.68833475 -86.8125 118.625 C-86.15016666 108.52441651 -82.28294732 101.20292151 -74.9375 94.28125 C-65.02921942 86.46895185 -51.995247 84.87057091 -39.82421875 86.0859375 C-30.39694439 87.49936194 -20.87340588 91.26560013 -14.88671875 98.96875 C-11.00710258 104.35202897 -7.64138868 109.93849119 -4.5625 115.8125 C-6.38365425 103.93163653 -9.58279566 94.15004976 -19.5625 86.8125 C-26.07407827 82.90555304 -31.98574595 82.76235761 -39.37963867 82.90234375 C-49.57249949 83.07134455 -57.81699758 81.93271446 -65.5625 74.8125 C-70.14273241 69.118157 -71.844224 63.69657675 -71.5 56.4375 C-70.67584495 49.46093164 -67.94371254 43.67231881 -62.6875 38.9375 C-54.81576296 33.58471881 -48.08593121 32.54814725 -38.5625 33.8125 C-31.89809695 36.11057002 -26.06478228 39.30971055 -21.5625 44.8125 C-20.97339844 45.44027344 -20.38429688 46.06804688 -19.77734375 46.71484375 C-11.76273731 55.7486487 -7.16447072 67.3880676 -3.5625 78.8125 C-3.99277035 65.8613626 -6.02365147 52.09706868 -14.5625 41.8125 C-19.34579137 37.64291394 -24.86391911 35.02462776 -30.71484375 32.671875 C-32.5625 31.8125 -32.5625 31.8125 -34.5625 29.8125 C-34.8125 27.3125 -34.8125 27.3125 -34.5625 24.8125 C-32.20296906 22.45296906 -30.78354383 22.32108587 -27.5625 21.8125 C-28.2225 20.8225 -28.8825 19.8325 -29.5625 18.8125 C-29.20361965 15.85173709 -28.71591979 14.96591979 -26.5625 12.8125 C-22.9375 13.1875 -22.9375 13.1875 -19.5625 13.8125 C-20.0575 10.3475 -20.0575 10.3475 -20.5625 6.8125 C-18.875 5.1875 -18.875 5.1875 -16.5625 3.8125 C-13.55683958 4.19784108 -12.11106778 5.11667656 -10.23828125 7.4921875 C-7.49309822 11.72949705 -5.4175062 16.12616855 -3.5625 20.8125 C-4.0575 19.141875 -4.0575 19.141875 -4.5625 17.4375 C-5.74557316 12.66265077 -6.36919869 7.69606302 -5.5625 2.8125 C-3.65615084 0.28165715 -3.23764572 -0.23690091 0 0 Z M-17.5625 15.8125 C-15.99882643 19.33488047 -13.86754111 22.08373994 -11.4375 25.0625 C-10.71304688 25.95453125 -9.98859375 26.8465625 -9.2421875 27.765625 C-8.68789062 28.44109375 -8.13359375 29.1165625 -7.5625 29.8125 C-7.2325 28.8225 -6.9025 27.8325 -6.5625 26.8125 C-7.84780086 24.51673747 -7.84780086 24.51673747 -9.75 22.25 C-10.36230469 21.46496094 -10.97460938 20.67992187 -11.60546875 19.87109375 C-13.51628468 17.86111371 -15.01971979 16.85554731 -17.5625 15.8125 Z M21.4375 23.8125 C13.62169249 26.83974939 8.36466851 33.99597727 4.1484375 40.93359375 C3.14510362 42.98780252 3.14510362 42.98780252 4.4375 45.8125 C4.78941406 45.17183594 5.14132813 44.53117187 5.50390625 43.87109375 C10.18906219 35.66289627 15.36082239 29.73730342 23.4375 24.8125 C22.7775 24.4825 22.1175 24.1525 21.4375 23.8125 Z M-22.5625 24.8125 C-21.799375 25.575625 -21.03625 26.33875 -20.25 27.125 C-18.77068663 28.60431337 -17.30057188 30.09383021 -15.875 31.625 C-14.61031729 33.03613777 -14.61031729 33.03613777 -12.5625 32.8125 C-14.0652258 28.60486776 -16.79582995 27.0097242 -20.5625 24.8125 C-21.2225 24.8125 -21.8825 24.8125 -22.5625 24.8125 Z M-12.5625 32.8125 C-11.9025 34.1325 -11.2425 35.4525 -10.5625 36.8125 C-10.5625 35.8225 -10.5625 34.8325 -10.5625 33.8125 C-11.2225 33.4825 -11.8825 33.1525 -12.5625 32.8125 Z M-9.5625 36.8125 C-8.48848892 39.72767292 -7.78439824 41.59060176 -5.5625 43.8125 C-5.83284634 41.37532742 -5.83284634 41.37532742 -6.5625 38.8125 C-7.5525 38.1525 -8.5425 37.4925 -9.5625 36.8125 Z M-5.5625 43.8125 C-4.5625 45.8125 -4.5625 45.8125 -4.5625 45.8125 Z " fill="#8B5E3B" transform="translate(88.5625,9.1875)"/>
<path d="M0 0 C0.88171875 -0.00773437 1.7634375 -0.01546875 2.671875 -0.0234375 C10.34484928 -0.00093611 17.74919068 0.66120701 24.625 4.25 C25.388125 4.45625 26.15125 4.6625 26.9375 4.875 C32.91259233 7.93202398 37.17317107 14.12042768 39.625 20.25 C41.87802619 28.03318139 40.9007149 35.93191352 37.625 43.25 C33.30549692 49.90066347 27.95809635 53.98897229 20.24609375 55.8125 C11.83505995 57.07612949 4.82181737 55.1232055 -2.0625 50.1875 C-6.83338786 46.20755298 -10.04560052 41.44386319 -13.375 36.25 C-17.86732852 29.47434291 -17.86732852 29.47434291 -25.25 26.4375 C-28.01028391 25.97745268 -29.27347704 26.20667089 -31.8828125 27.3203125 C-35.50570497 30.12549883 -37.25561319 33.79655898 -39.3359375 37.77539062 C-40.3125 39.51171875 -40.3125 39.51171875 -42.375 42.25 C-45.125 42.64453125 -45.125 42.64453125 -47.375 42.25 C-47.705 40.93 -48.035 39.61 -48.375 38.25 C-47.59125 38.0025 -46.8075 37.755 -46 37.5 C-42.8679817 36.00856271 -42.55013712 35.4396579 -41.375 32.25 C-41.1171875 31.57710937 -40.859375 30.90421875 -40.59375 30.2109375 C-39.83781956 28.23011977 -39.10487423 26.24056608 -38.375 24.25 C-37.715 24.25 -37.055 24.25 -36.375 24.25 C-36.2925 23.734375 -36.21 23.21875 -36.125 22.6875 C-33.57221153 14.39093749 -27.93311532 7.93536161 -20.73046875 3.328125 C-13.93723541 0.21878436 -7.34302616 -0.0638524 0 0 Z " fill="#8B5E3A" transform="translate(133.375,97.75)"/>
<path d="M0 0 C2.4375 0.8125 2.4375 0.8125 4.4375 2.8125 C4.85721194 8.79339508 3.93586149 14.03310567 2.4375 19.8125 C2.81261719 18.99265625 3.18773437 18.1728125 3.57421875 17.328125 C4.34185547 15.71164063 4.34185547 15.71164063 5.125 14.0625 C5.62386719 12.99515625 6.12273437 11.9278125 6.63671875 10.828125 C8.56195267 7.60408903 10.29871465 5.84699003 13.4375 3.8125 C17.73018293 4.10518293 17.73018293 4.10518293 19.4375 5.8125 C19.80078125 8.5625 19.80078125 8.5625 19.4375 11.8125 C17.35546875 14.375 17.35546875 14.375 14.625 16.8125 C10.82497728 20.23416548 8.49533894 23.10886814 6.4375 27.8125 C10.19997089 24.15295385 13.72234282 20.47938768 17 16.375 C19.42107052 13.56132344 19.9920181 12.90495851 23.75 12.125 C26.4375 12.8125 26.4375 12.8125 28.4375 15.8125 C28.25 18.375 28.25 18.375 27.4375 20.8125 C26.4475 21.4725 25.4575 22.1325 24.4375 22.8125 C26.7475 22.8125 29.0575 22.8125 31.4375 22.8125 C32.4375 24.8125 32.4375 24.8125 31.93359375 27.2109375 C29.89491485 30.75600315 27.10790677 31.86154881 23.5 33.4375 C19.63417253 35.18361129 16.41504017 36.73228603 13.4375 39.8125 C12.4475 39.8125 11.4575 39.8125 10.4375 39.8125 C10.15777344 40.37324219 9.87804687 40.93398438 9.58984375 41.51171875 C8.82367092 43.04146721 8.04503898 44.56504076 7.25390625 46.08203125 C0.39258345 59.99705039 -0.11471832 74.60336359 -0.5625 89.8125 C-1.2225 89.8125 -1.8825 89.8125 -2.5625 89.8125 C-3.36913713 86.0818033 -3.56194259 82.66484249 -3.4375 78.875 C-3.33595458 66.45260989 -6.37164118 51.55298076 -14.5625 41.8125 C-19.5119202 37.84098944 -24.84547501 35.03204444 -30.71484375 32.671875 C-32.5625 31.8125 -32.5625 31.8125 -34.5625 29.8125 C-34.8125 27.3125 -34.8125 27.3125 -34.5625 24.8125 C-32.20296906 22.45296906 -30.78354383 22.32108587 -27.5625 21.8125 C-28.2225 20.8225 -28.8825 19.8325 -29.5625 18.8125 C-29.20361965 15.85173709 -28.71591979 14.96591979 -26.5625 12.8125 C-22.9375 13.1875 -22.9375 13.1875 -19.5625 13.8125 C-19.8925 11.5025 -20.2225 9.1925 -20.5625 6.8125 C-18.875 5.1875 -18.875 5.1875 -16.5625 3.8125 C-13.55683958 4.19784108 -12.11106778 5.11667656 -10.23828125 7.4921875 C-7.49309822 11.72949705 -5.4175062 16.12616855 -3.5625 20.8125 C-3.8925 19.69875 -4.2225 18.585 -4.5625 17.4375 C-5.74557316 12.66265077 -6.36919869 7.69606302 -5.5625 2.8125 C-3.65615084 0.28165715 -3.23764572 -0.23690091 0 0 Z M-17.5625 15.8125 C-15.99882643 19.33488047 -13.86754111 22.08373994 -11.4375 25.0625 C-10.71304688 25.95453125 -9.98859375 26.8465625 -9.2421875 27.765625 C-8.68789062 28.44109375 -8.13359375 29.1165625 -7.5625 29.8125 C-7.2325 28.8225 -6.9025 27.8325 -6.5625 26.8125 C-7.84780086 24.51673747 -7.84780086 24.51673747 -9.75 22.25 C-10.36230469 21.46496094 -10.97460938 20.67992187 -11.60546875 19.87109375 C-13.51628468 17.86111371 -15.01971979 16.85554731 -17.5625 15.8125 Z M21.4375 23.8125 C13.62169249 26.83974939 8.36466851 33.99597727 4.1484375 40.93359375 C3.14510362 42.98780252 3.14510362 42.98780252 4.4375 45.8125 C4.78941406 45.17183594 5.14132813 44.53117187 5.50390625 43.87109375 C10.18906219 35.66289627 15.36082239 29.73730342 23.4375 24.8125 C22.7775 24.4825 22.1175 24.1525 21.4375 23.8125 Z M-22.5625 24.8125 C-21.799375 25.575625 -21.03625 26.33875 -20.25 27.125 C-18.77068663 28.60431337 -17.30057188 30.09383021 -15.875 31.625 C-14.61031729 33.03613777 -14.61031729 33.03613777 -12.5625 32.8125 C-14.0652258 28.60486776 -16.79582995 27.0097242 -20.5625 24.8125 C-21.2225 24.8125 -21.8825 24.8125 -22.5625 24.8125 Z M-12.5625 32.8125 C-11.9025 34.1325 -11.2425 35.4525 -10.5625 36.8125 C-10.5625 35.8225 -10.5625 34.8325 -10.5625 33.8125 C-11.2225 33.4825 -11.8825 33.1525 -12.5625 32.8125 Z M-9.5625 36.8125 C-8.48848892 39.72767292 -7.78439824 41.59060176 -5.5625 43.8125 C-5.83284634 41.37532742 -5.83284634 41.37532742 -6.5625 38.8125 C-7.5525 38.1525 -8.5425 37.4925 -9.5625 36.8125 Z M-5.5625 43.8125 C-4.5625 45.8125 -4.5625 45.8125 -4.5625 45.8125 Z " fill="#805C40" transform="translate(88.5625,9.1875)"/>
<path d="M0 0 C0.66 0 1.32 0 2 0 C1.51851852 5.41666667 1.51851852 5.41666667 -0.5 7.6875 C-2.80219634 8.89615308 -4.83284518 9.57747455 -7.3125 10.3125 C-14.39102646 12.56740005 -19.23256045 17.1776966 -22.87890625 23.59765625 C-28.89815862 36.4960542 -29.57230779 51.03559116 -31 65 C-30.34 65 -29.68 65 -29 65 C-28.67 62.69 -28.34 60.38 -28 58 C-27.67 58.99 -27.34 59.98 -27 61 C-24.98491642 61.73323796 -24.98491642 61.73323796 -23 62 C-22.67 61.01 -22.34 60.02 -22 59 C-21.01 58.67 -20.02 58.34 -19 58 C-17.515 58.99 -17.515 58.99 -16 60 C-15.649375 59.54625 -15.29875 59.0925 -14.9375 58.625 C-9.52143717 54.08249569 -1.81264136 54.5985187 4.890625 54.24609375 C8.03223051 54.1228075 8.03223051 54.1228075 11 53 C12.03125 53.04125 13.0625 53.0825 14.125 53.125 C20.50008934 52.91935196 26.16019825 50.44894912 32 48 C32 48.99 32 49.98 32 51 C23.42186878 58.22368945 12.73921353 58.43209132 2.03515625 58.43945312 C-6.37635722 58.61003627 -12.89050222 61.05562378 -19 67 C-24.48650267 74.33717371 -27.06401653 81.88913426 -28.27734375 90.8984375 C-29 93 -29 93 -31.06640625 94.2890625 C-31.70449219 94.52367187 -32.34257813 94.75828125 -33 95 C-33 92.33333333 -33 89.66666667 -33 87 C-33.66361615 81.70233077 -33.66361615 81.70233077 -36 77 C-36.62390625 76.89945312 -37.2478125 76.79890625 -37.890625 76.6953125 C-40.94055787 75.68996426 -41.46276004 73.97765897 -42.9375 71.1875 C-46.46793341 64.97606078 -50.36140024 61.73354108 -57 59 C-61.67978294 58.04671088 -66.04341998 58.00012395 -70.81787109 58.08935547 C-78.93600479 58.22587327 -85.51480542 57.73487474 -92.5625 53.4375 C-93.036875 52.963125 -93.51125 52.48875 -94 52 C-94 51.34 -94 50.68 -94 50 C-92.68 50.33 -91.36 50.66 -90 51 C-90 51.66 -90 52.32 -90 53 C-85.95936297 53.74016884 -82.04917891 54.1683286 -77.9453125 54.31640625 C-76.83671875 54.35830078 -75.728125 54.40019531 -74.5859375 54.44335938 C-73.44382812 54.48267578 -72.30171875 54.52199219 -71.125 54.5625 C-69.9596875 54.60568359 -68.794375 54.64886719 -67.59375 54.69335938 C-64.72927375 54.79901629 -61.86471679 54.90111799 -59 55 C-59 54.34 -59 53.68 -59 53 C-58.01 53.495 -58.01 53.495 -57 54 C-56.01 54.33 -55.02 54.66 -54 55 C-51 56 -51 56 -49 57 C-49 57.66 -49 58.32 -49 59 C-48.01 59.495 -48.01 59.495 -47 60 C-47.495 60.99 -47.495 60.99 -48 62 C-45.7522025 59.94766315 -44.9977758 58.99332739 -44 56 C-43.34 56 -42.68 56 -42 56 C-41.34 55.01 -40.68 54.02 -40 53 C-38.078125 53.6796875 -38.078125 53.6796875 -36 55 C-35.171875 57.3828125 -35.171875 57.3828125 -34.75 60.125 C-34.60046875 61.03507812 -34.4509375 61.94515625 -34.296875 62.8828125 C-34.14992188 63.93082031 -34.14992188 63.93082031 -34 65 C-33.34 65 -32.68 65 -32 65 C-32.05220703 63.09541016 -32.05220703 63.09541016 -32.10546875 61.15234375 C-32.43603192 44.04319568 -30.75394907 29.63092361 -21 15 C-19.36816893 13.94410931 -17.69207001 12.9563874 -16 12 C-14.70697783 11.16877146 -13.41541573 10.3352691 -12.125 9.5 C-9.49413382 7.82762776 -6.97832782 6.53318068 -4.0625 5.4375 C-0.86304426 4.34971725 -0.86304426 4.34971725 -0.0625 1.8125 C-0.041875 1.214375 -0.02125 0.61625 0 0 Z " fill="#8A5E3C" transform="translate(120,34)"/>
<path d="M0 0 C-4.45813929 1.46328423 -6.79557386 -0.08219158 -11 -2 C-15.96239878 -3.39393224 -21.07306931 -3.221166 -26.1875 -3.25 C-27.53038086 -3.2809375 -27.53038086 -3.2809375 -28.90039062 -3.3125 C-37.21921731 -3.36055098 -44.30384046 -2.08100995 -51 3 C-51.66 3 -52.32 3 -53 3 C-53.226875 3.53625 -53.45375 4.0725 -53.6875 4.625 C-55.09456527 7.1711181 -56.86710166 9.15486426 -58.765625 11.34375 C-60.07975333 13.10701079 -60.86957157 14.77602513 -61.6875 16.8125 C-63 20 -63 20 -65 21 C-65.75969988 22.75278118 -65.75969988 22.75278118 -66.375 24.8125 C-67.89808115 29.12660803 -69.81647482 31.90823741 -74 34 C-74 34.99 -74 35.98 -74 37 C-73.01 36.505 -73.01 36.505 -72 36 C-72 36.66 -72 37.32 -72 38 C-71.01 38 -70.02 38 -69 38 C-68.67 37.34 -68.34 36.68 -68 36 C-68.66 42.6 -69.32 49.2 -70 56 C-71.32 56 -72.64 56 -74 56 C-74.03867188 54.80117187 -74.03867188 54.80117187 -74.078125 53.578125 C-74.57191888 44.01647983 -76.53388493 35.51165429 -81 27 C-80.13375 26.443125 -79.2675 25.88625 -78.375 25.3125 C-76.85795444 24.01051383 -76.85795444 24.01051383 -76 22 C-76.15613173 17.55293775 -77.00479369 13.32946438 -78 9 C-77.34 9 -76.68 9 -76 9 C-75.67 8.01 -75.34 7.02 -75 6 C-75 7.32 -75 8.64 -75 10 C-74.34 10.33 -73.68 10.66 -73 11 C-73 12.98 -73 14.96 -73 17 C-72.34 17.33 -71.68 17.66 -71 18 C-71.33 20.31 -71.66 22.62 -72 25 C-69.40923903 24.00187525 -68.20928129 23.34924228 -66.76171875 20.93359375 C-66.40722656 20.10988281 -66.05273438 19.28617188 -65.6875 18.4375 C-60.60756692 7.70459261 -53.57197039 -0.06432695 -42.375 -4.3125 C-27.71393837 -9.1526587 -13.46854533 -7.51130413 0 0 Z " fill="#8A6141" transform="translate(160,102)"/>
<path d="M0 0 C1 2 1 2 0.49609375 4.3984375 C-1.54258515 7.94350315 -4.32959323 9.04904881 -7.9375 10.625 C-11.80332747 12.37111129 -15.02245983 13.91978603 -18 17 C-18.99 17 -19.98 17 -21 17 C-21.27972656 17.56074219 -21.55945313 18.12148438 -21.84765625 18.69921875 C-22.61382908 20.22896721 -23.39246102 21.75254076 -24.18359375 23.26953125 C-31.04491655 37.18455039 -31.55221832 51.79086359 -32 67 C-32.66 67 -33.32 67 -34 67 C-34.80663713 63.2693033 -34.99944259 59.85234249 -34.875 56.0625 C-34.78105096 49.85332226 -36.05433753 44.20429586 -37.44140625 38.1875 C-38 35 -38 35 -37 32 C-36.34 32.66 -35.68 33.32 -35 34 C-35 33.01 -35 32.02 -35 31 C-34.34 31 -33.68 31 -33 31 C-31.26337666 27.77484237 -30.1094072 24.48670834 -29 21 C-28.34 21 -27.68 21 -27 21 C-25.65362509 19.21282912 -25.65362509 19.21282912 -24.3125 16.9375 C-18.85120516 8.5344932 -10.87641002 -0.6296869 0 0 Z " fill="#876041" transform="translate(120,32)"/>
<path d="M0 0 C1.32 0.33 2.64 0.66 4 1 C4 2.65 4 4.3 4 6 C4.99 5.67 5.98 5.34 7 5 C8.49821059 8.37097383 9 10.20442119 9 14 C9.99 14 10.98 14 12 14 C12.495 15.19625 12.99 16.3925 13.5 17.625 C16.31676454 23.27857722 20.75251661 26.38174392 26.3125 29.15234375 C29.66420177 30.20949387 32.55270833 30.22879167 36.0625 30.1875 C37.27035156 30.18105469 38.47820312 30.17460937 39.72265625 30.16796875 C42.35058061 30.03328371 44.50648479 29.7772803 47 29 C46.505 30.485 46.505 30.485 46 32 C39.48870261 34.83099887 32.40861993 34.53013956 25.7265625 32.2109375 C16.92722404 28.06412282 12.27488159 21.93085241 7 14 C2.50571217 7.22773112 2.50571217 7.22773112 -4.875 4.1875 C-7.63528391 3.72745268 -8.89847704 3.95667089 -11.5078125 5.0703125 C-15.13070497 7.87549883 -16.88061319 11.54655898 -18.9609375 15.52539062 C-19.9375 17.26171875 -19.9375 17.26171875 -22 20 C-24.75 20.39453125 -24.75 20.39453125 -27 20 C-27.33 18.68 -27.66 17.36 -28 16 C-27.21625 15.7525 -26.4325 15.505 -25.625 15.25 C-22.51577598 13.76941713 -22.41791797 12.99944187 -21 10 C-20.08390136 8.7593407 -19.12397282 7.54995767 -18.125 6.375 C-17.63257812 5.78460938 -17.14015625 5.19421875 -16.6328125 4.5859375 C-14.29307789 2.3133723 -12.22346978 1.13855032 -8.96484375 0.76953125 C-5.74155276 0.83784763 -3.07547208 0.97484264 0 2 C0 1.34 0 0.68 0 0 Z " fill="#7E5D43" transform="translate(113,120)"/>
<path d="M0 0 C0.66 0.33 1.32 0.66 2 1 C2 1.66 2 2.32 2 3 C-6.74415564 10.13339013 -17.14395296 10.43201097 -27.96484375 10.43945312 C-36.37635722 10.61003627 -42.89050222 13.05562378 -49 19 C-53.89512062 25.22313442 -56.35690633 32.62183215 -59 40 C-59.33 40 -59.66 40 -60 40 C-60.59244521 33.33499135 -58.48322845 28.13047025 -56 22 C-55.34 22 -54.68 22 -54 22 C-53.7525 21.443125 -53.505 20.88625 -53.25 20.3125 C-50.89030601 15.94706613 -48.54334488 13.03667184 -44 11 C-43.67 10.34 -43.34 9.68 -43 9 C-37.19696037 6.70577503 -31.29704037 6.57141092 -25.109375 6.24609375 C-21.96776949 6.1228075 -21.96776949 6.1228075 -19 5 C-17.96875 5.04125 -16.9375 5.0825 -15.875 5.125 C-9.96341058 4.93430357 -4.91713005 3.2780867 0 0 Z " fill="#725340" transform="translate(150,82)"/>
<path d="M0 0 C3.1875 2.125 3.1875 2.125 4.1875 4.125 C2.70738629 3.81701674 1.22842675 3.503482 -0.25 3.1875 C-1.07371094 3.01347656 -1.89742187 2.83945312 -2.74609375 2.66015625 C-4.8125 2.125 -4.8125 2.125 -5.8125 1.125 C-14.19167053 0.35406576 -21.41381429 0.95248538 -28.8125 5.125 C-31.14704661 6.95858335 -31.14704661 6.95858335 -32.8125 9.125 C-33.59625 9.82625 -34.38 10.5275 -35.1875 11.25 C-38.76421803 15.16735784 -41.22179556 19.51653537 -43.8125 24.125 C-44.39874146 25.08780884 -44.39874146 25.08780884 -44.99682617 26.07006836 C-48.44198015 31.89548694 -50.40426198 37.66322418 -52.125 44.1875 C-52.52041992 45.62899414 -52.52041992 45.62899414 -52.92382812 47.09960938 C-53.56389895 49.43877731 -54.1932023 51.78026385 -54.8125 54.125 C-55.4725 54.125 -56.1325 54.125 -56.8125 54.125 C-56.86649736 52.66707116 -56.90529177 51.20857288 -56.9375 49.75 C-56.97230469 48.53183594 -56.97230469 48.53183594 -57.0078125 47.2890625 C-56.8125 45.125 -56.8125 45.125 -54.8125 43.125 C-53.86903155 40.48737768 -52.98563014 37.85170908 -52.125 35.1875 C-47.49952301 21.58491782 -39.48542904 8.5608098 -26.83203125 1.0625 C-18.62804358 -2.74592755 -8.37019848 -4.05644338 0 0 Z " fill="#A5856E" transform="translate(145.8125,44.875)"/>
<path d="M0 0 C-4.45813929 1.46328423 -6.79557386 -0.08219158 -11 -2 C-15.96239878 -3.39393224 -21.07306931 -3.221166 -26.1875 -3.25 C-27.53038086 -3.2809375 -27.53038086 -3.2809375 -28.90039062 -3.3125 C-37.21921731 -3.36055098 -44.30384046 -2.08100995 -51 3 C-51.66 3 -52.32 3 -53 3 C-53.226875 3.53625 -53.45375 4.0725 -53.6875 4.625 C-55.09456527 7.1711181 -56.86710166 9.15486426 -58.765625 11.34375 C-60.07975333 13.10701079 -60.86957157 14.77602513 -61.6875 16.8125 C-63 20 -63 20 -65 21 C-65.309375 21.99 -65.61875 22.98 -65.9375 24 C-66.4634375 25.485 -66.4634375 25.485 -67 27 C-68.485 27.495 -68.485 27.495 -70 28 C-68.32297373 18.43386422 -60.16494344 7.19992338 -53 1 C-36.74562992 -9.93726258 -16.70090094 -9.31396399 0 0 Z " fill="#B89F8A" transform="translate(160,102)"/>
<path d="M0 0 C2.375 0.8125 2.375 0.8125 3.375 2.8125 C2.79412955 9.0859009 2.79412955 9.0859009 1.36328125 11.56640625 C-0.29751642 15.34094641 -0.05854058 19.33625953 -0.19140625 23.41210938 C-0.35763677 27.0511122 -0.55210957 28.70316435 -2.625 31.8125 C-2.295 32.4725 -1.965 33.1325 -1.625 33.8125 C-2.615 34.8025 -3.605 35.7925 -4.625 36.8125 C-6.2398266 32.72793861 -7.03664374 30.04743122 -5.625 25.8125 C-4.965 25.1525 -4.305 24.4925 -3.625 23.8125 C-3.93896243 19.85657344 -4.37327818 16.56766546 -5.625 12.8125 C-5.76720279 11.14982126 -5.84520567 9.4809827 -5.875 7.8125 C-5.90078125 6.94625 -5.9265625 6.08 -5.953125 5.1875 C-5.625 2.8125 -5.625 2.8125 -4.2734375 0.98828125 C-2.625 -0.1875 -2.625 -0.1875 0 0 Z " fill="#8A6041" transform="translate(88.625,9.1875)"/>
<path d="M0 0 C0.66 0 1.32 0 2 0 C1.51851852 5.41666667 1.51851852 5.41666667 -0.5 7.6875 C-2.80219634 8.89615308 -4.83284518 9.57747455 -7.3125 10.3125 C-14.39256519 12.56789022 -19.21766662 17.17576713 -22.87890625 23.5859375 C-28.44692076 35.57559941 -29.47091073 49.03092721 -31 62 C-31.33 62 -31.66 62 -32 62 C-32.57215222 44.68709775 -30.8926534 29.8389801 -21 15 C-19.36816893 13.94410931 -17.69207001 12.9563874 -16 12 C-14.70697783 11.16877146 -13.41541573 10.3352691 -12.125 9.5 C-9.49413382 7.82762776 -6.97832782 6.53318068 -4.0625 5.4375 C-0.86304426 4.34971725 -0.86304426 4.34971725 -0.0625 1.8125 C-0.041875 1.214375 -0.02125 0.61625 0 0 Z " fill="#5D4533" transform="translate(120,34)"/>
<path d="M0 0 C1.42505859 0.2165625 1.42505859 0.2165625 2.87890625 0.4375 C4.87890625 3.4375 4.87890625 3.4375 4.50390625 6.125 C4.19453125 7.2696875 4.19453125 7.2696875 3.87890625 8.4375 C3.15703125 8.54578125 2.43515625 8.6540625 1.69140625 8.765625 C-5.4245779 10.46555455 -11.20552074 15.21470368 -16.12109375 20.4375 C-16.78109375 20.4375 -17.44109375 20.4375 -18.12109375 20.4375 C-18.12109375 21.0975 -18.12109375 21.7575 -18.12109375 22.4375 C-19.11109375 22.4375 -20.10109375 22.4375 -21.12109375 22.4375 C-20.79109375 20.7875 -20.46109375 19.1375 -20.12109375 17.4375 C-19.46109375 17.4375 -18.80109375 17.4375 -18.12109375 17.4375 C-16.58432859 15.95703208 -16.58432859 15.95703208 -14.99609375 14 C-14.37605469 13.27941406 -13.75601563 12.55882812 -13.1171875 11.81640625 C-11.75640989 10.19465759 -10.41593279 8.55570913 -9.09375 6.90234375 C-8.42214844 6.08894531 -7.75054687 5.27554687 -7.05859375 4.4375 C-6.44886719 3.674375 -5.83914062 2.91125 -5.2109375 2.125 C-3.12109375 0.4375 -3.12109375 0.4375 0 0 Z " fill="#846048" transform="translate(112.12109375,21.5625)"/>
<path d="M0 0 C0 0.33 0 0.66 0 1 C-0.845625 1.226875 -1.69125 1.45375 -2.5625 1.6875 C-10.48252617 4.71150999 -14.10374134 9.27632741 -18.66113281 16.11816406 C-24.37500454 24.65250013 -30.69511866 30.82406888 -41 33 C-48.28312123 33.57122519 -54.8956669 32.01704069 -60.5625 27.3125 C-61.366875 26.549375 -62.17125 25.78625 -63 25 C-62.505 23.515 -62.505 23.515 -62 22 C-62 22.66 -62 23.32 -62 24 C-61.46375 24.268125 -60.9275 24.53625 -60.375 24.8125 C-58 26 -58 26 -55.5625 27.625 C-48.64557296 30.29469114 -40.84813373 30.15214042 -34 27.25 C-25.74959044 22.89978405 -21.06614778 16.41848339 -16.5234375 8.390625 C-12.55068497 2.1564595 -7.30386477 -0.9129831 0 0 Z " fill="#614634" transform="translate(72,121)"/>
<path d="M0 0 C6.79138123 0.98783727 12.29100783 6.18358721 17.4375 10.5 C17.1075 11.16 16.7775 11.82 16.4375 12.5 C12.57536444 13.78737852 10.90191532 12.93069741 7.0625 11.6875 C5.94101563 11.33042969 4.81953125 10.97335938 3.6640625 10.60546875 C0.87981307 9.6515431 -1.84380058 8.62515463 -4.5625 7.5 C-4.6875 5.125 -4.6875 5.125 -4.5625 2.5 C-2.5625 0.5 -2.5625 0.5 0 0 Z " fill="#886041" transform="translate(58.5625,31.5)"/>
<path d="M0 0 C0 0.33 0 0.66 0 1 C-0.6290625 1.08636719 -1.258125 1.17273437 -1.90625 1.26171875 C-9.47549403 2.50426032 -15.22766742 4.58247002 -20.1484375 10.6484375 C-22.36010353 14.65183297 -22.86011023 17.88314495 -23.25 22.375 C-23.32734375 23.11105469 -23.4046875 23.84710938 -23.484375 24.60546875 C-23.67104528 26.40217018 -23.83761464 28.20094113 -24 30 C-23.071875 30.2165625 -23.071875 30.2165625 -22.125 30.4375 C-20 31 -20 31 -18 32 C-17.63451555 33.32488113 -17.3062434 34.66018514 -17 36 C-16.36345658 37.3479743 -15.70394612 38.68596724 -15 40 C-16.65 40.66 -18.3 41.32 -20 42 C-25.58735463 34.79525325 -27.68795326 28.97767411 -26.6015625 19.78125 C-25.01598637 12.45053437 -21.12217549 7.16307933 -15 3 C-9.67974503 0.14282603 -5.88399223 -0.3096838 0 0 Z " fill="#876448" transform="translate(44,43)"/>
<path d="M0 0 C0.66 0.66 1.32 1.32 2 2 C1.16863525 1.98428955 0.33727051 1.9685791 -0.51928711 1.95239258 C-3.64475136 1.90084167 -6.76999675 1.86344645 -9.89575195 1.83520508 C-11.89744576 1.81294542 -13.89894275 1.77479854 -15.90039062 1.73632812 C-25.97302666 1.66021249 -33.20773442 2.35365583 -41 9 C-41.99 9 -42.98 9 -44 9 C-44.25523438 9.52078125 -44.51046875 10.0415625 -44.7734375 10.578125 C-46.33688094 13.66517892 -47.98081695 16.70521658 -49.625 19.75 C-49.94984375 20.35199219 -50.2746875 20.95398438 -50.609375 21.57421875 C-51.40570585 23.04977297 -52.20277839 24.52492686 -53 26 C-53.78347427 23.71062713 -54.12854612 22.41234923 -53.3984375 20.0703125 C-47.73457097 9.30464254 -40.98132113 3.62889625 -29.5625 -0.21875 C-20.00400473 -3.13292539 -9.59408372 -2.69833605 0 0 Z " fill="#AD8F78" transform="translate(57,97)"/>
<path d="M0 0 C4.42227938 0.03646167 6.40014777 0.43371829 9.65234375 3.50390625 C10.40644531 4.51324219 11.16054687 5.52257812 11.9375 6.5625 C12.70964844 7.57441406 13.48179688 8.58632813 14.27734375 9.62890625 C14.84582031 10.41136719 15.41429688 11.19382812 16 12 C15.01 12.33 14.02 12.66 13 13 C12.236875 12.505 11.47375 12.01 10.6875 11.5 C8.0562061 9.64646418 8.0562061 9.64646418 5 10.625 C2 11 2 11 -0.9375 8.8125 C-3 6 -3 6 -2.9375 3.8125 C-2 2 -2 2 0 0 Z " fill="#875F43" transform="translate(62,22)"/>
<path d="M0 0 C1 1 1 1 1.0625 4.0625 C1.041875 5.031875 1.02125 6.00125 1 7 C0.67 7 0.34 7 0 7 C0 5.35 0 3.7 0 2 C-1.98 2.33 -3.96 2.66 -6 3 C-6.433125 4.8253125 -6.433125 4.8253125 -6.875 6.6875 C-8.13946423 11.7011449 -9.50292967 16.06579588 -13 20 C-13.66 20 -14.32 20 -15 20 C-15.33 21.32 -15.66 22.64 -16 24 C-16.66 24 -17.32 24 -18 24 C-18 22.35 -18 20.7 -18 19 C-17.34 19 -16.68 19 -16 19 C-15.9175 18.360625 -15.835 17.72125 -15.75 17.0625 C-14.18885529 10.68782577 -11.51877353 4.82002509 -7 0 C-4.31633121 -1.3418344 -2.84719317 -0.73004953 0 0 Z " fill="#9A816C" transform="translate(107,14)"/>
<path d="M0 0 C-0.94606383 3.79730449 -1.74169798 4.84316234 -5.15234375 6.9140625 C-6.40649438 7.50083055 -7.66864059 8.07075605 -8.9375 8.625 C-12.80332747 10.37111129 -16.02245983 11.91978603 -19 15 C-19.99 15 -20.98 15 -22 15 C-18.75923822 7.34001761 -13.38931127 3.31791973 -6 0 C-2.3630363 -1.18151815 -2.3630363 -1.18151815 0 0 Z " fill="#845F43" transform="translate(121,34)"/>
<path d="M0 0 C1.4540625 0.0309375 1.4540625 0.0309375 2.9375 0.0625 C3.44342805 5.42840352 3.44342805 5.42840352 1.1796875 8.265625 C0.39851563 8.94109375 -0.38265625 9.6165625 -1.1875 10.3125 C-5.93885131 14.71857144 -9.03175118 19.36944633 -12.0625 25.0625 C-12.99673645 22.05218256 -13.10699911 21.19599732 -12.0625 18.0625 C-11.4025 18.0625 -10.7425 18.0625 -10.0625 18.0625 C-7.82735052 13.75185457 -6.13822266 9.53401621 -5 4.8125 C-3.81634615 0.07788462 -3.81634615 0.07788462 0 0 Z " fill="#755339" transform="translate(104.0625,15.9375)"/>
<path d="M0 0 C0.66 0.66 1.32 1.32 2 2 C-1.63 2 -5.26 2 -9 2 C-9.66 3.32 -10.32 4.64 -11 6 C-12.24317074 8.27228558 -13.50782073 10.51410897 -14.8125 12.75 C-15.14314453 13.35199219 -15.47378906 13.95398438 -15.81445312 14.57421875 C-16.83203125 16.296875 -16.83203125 16.296875 -19 19 C-21.76171875 19.390625 -21.76171875 19.390625 -24 19 C-24.33 17.68 -24.66 16.36 -25 15 C-24.21625 14.7525 -23.4325 14.505 -22.625 14.25 C-19.51577598 12.76941713 -19.41791797 11.99944187 -18 9 C-17.08390136 7.7593407 -16.12397282 6.54995767 -15.125 5.375 C-14.63257812 4.78460938 -14.14015625 4.19421875 -13.6328125 3.5859375 C-9.43336856 -0.49294824 -5.57750044 -0.35983874 0 0 Z " fill="#76543A" transform="translate(110,121)"/>
<path d="M0 0 C1.32 0.33 2.64 0.66 4 1 C4 1.66 4 2.32 4 3 C10.64081302 4.36192945 17.36794357 4.33708324 24.12109375 4.51757812 C25.07371094 4.55173828 26.02632812 4.58589844 27.0078125 4.62109375 C27.87035645 4.6461499 28.73290039 4.67120605 29.62158203 4.69702148 C32.13840661 5.01763114 33.8169772 5.7373578 36 7 C24.31919776 8.88106426 11.87536027 9.80204894 1.4375 3.4375 C0.963125 2.963125 0.48875 2.48875 0 2 C0 1.34 0 0.68 0 0 Z " fill="#654936" transform="translate(26,84)"/>
<path d="M0 0 C-1.38080403 2.76160806 -2.81175451 2.80233529 -5.6875 3.8125 C-11.82086271 6.16946367 -16.44391099 9.31025758 -20 15 C-20.309375 15.825 -20.61875 16.65 -20.9375 17.5 C-22.15896556 20.3740366 -23.77572277 21.84747365 -26 24 C-26.33 24.99 -26.66 25.98 -27 27 C-27.99 27 -28.98 27 -30 27 C-29.67 25.02 -29.34 23.04 -29 21 C-28.34 21 -27.68 21 -27 21 C-25.65362509 19.21282912 -25.65362509 19.21282912 -24.3125 16.9375 C-18.85120516 8.5344932 -10.87641002 -0.6296869 0 0 Z " fill="#A68877" transform="translate(120,32)"/>
<path d="M0 0 C0.66 0 1.32 0 2 0 C2.66 0.886875 3.32 1.77375 4 2.6875 C7.53305723 6.99885389 11.69026403 9.3769977 17 11 C23.02070263 11.57154459 29.15575057 11.75615377 35 10 C34.67 10.99 34.34 11.98 34 13 C27.48870261 15.83099887 20.40861993 15.53013956 13.7265625 13.2109375 C8.43231466 10.71594714 3.25188387 7.56067155 0.625 2.1875 C0.41875 1.465625 0.2125 0.74375 0 0 Z " fill="#664C39" transform="translate(125,139)"/>
<path d="M0 0 C0.66 0 1.32 0 2 0 C1.01469421 2.19798983 0.18695263 3.82052548 -1.5625 5.5 C-3.33124814 7.34565023 -3.76911424 8.46025664 -4 11 C-3.14209817 13.21771064 -3.14209817 13.21771064 -2 15 C-6.75 18 -6.75 18 -9 18 C-9.268125 18.639375 -9.53625 19.27875 -9.8125 19.9375 C-11 22 -11 22 -14 23 C-13.34 21.02 -12.68 19.04 -12 17 C-11.34 17 -10.68 17 -10 17 C-9.9175 16.484375 -9.835 15.96875 -9.75 15.4375 C-7.91023662 9.45826902 -4.20045476 4.53206961 0 0 Z M-3 10 C-2.34 10 -1.68 10 -1 10 C-1 10.66 -1 11.32 -1 12 C-1.66 12 -2.32 12 -3 12 C-3 11.34 -3 10.68 -3 10 Z " fill="#896548" transform="translate(107,105)"/>
<path d="M0 0 C3.13759973 0.82175231 4.70255875 1.70255875 7 4 C6.70630173 5.34262065 6.3721042 6.67696283 6 8 C6.33 8.66 6.66 9.32 7 10 C6.34 10 5.68 10 5 10 C5.33 11.32 5.66 12.64 6 14 C4.0625 13.3125 4.0625 13.3125 2 12 C1.375 9.4375 1.375 9.4375 1 7 C0.34 6.67 -0.32 6.34 -1 6 C-1.66 7.32 -2.32 8.64 -3 10 C-3.33 7.69 -3.66 5.38 -4 3 C-2.3125 1.375 -2.3125 1.375 0 0 Z " fill="#865F3C" transform="translate(72,13)"/>
<path d="M0 0 C0 0.33 0 0.66 0 1 C-0.845625 1.226875 -1.69125 1.45375 -2.5625 1.6875 C-10.46903179 4.70635759 -14.11501877 9.26081314 -18.64794922 16.109375 C-21.60020607 20.54092929 -24.7323026 24.74898398 -29 28 C-29.66 28 -30.32 28 -31 28 C-30 25 -30 25 -27.875 23.4375 C-23.03520393 19.33419463 -19.63640086 13.89184067 -16.5234375 8.390625 C-12.55068497 2.1564595 -7.30386477 -0.9129831 0 0 Z " fill="#513624" transform="translate(72,121)"/>
<path d="M0 0 C2.64850992 2.64850992 4.33103223 5.66206447 6 9 C5.34 9 4.68 9 4 9 C4.50144531 9.77601562 5.00289063 10.55203125 5.51953125 11.3515625 C7.50138522 16.23560368 7.10488471 20.19647461 6.6875 25.375 C6.62626953 26.30183594 6.56503906 27.22867188 6.50195312 28.18359375 C6.34959726 30.45721208 6.18190418 32.72858703 6 35 C5.34 35 4.68 35 4 35 C3.19336287 31.2693033 3.00055741 27.85234249 3.125 24.0625 C3.20974874 17.90126648 1.97936154 12.166004 0.65625 6.1875 C0 3 0 3 0 0 Z " fill="#926F59" transform="translate(82,64)"/>
<path d="M0 0 C0.33 0.66 0.66 1.32 1 2 C1.99 2 2.98 2 4 2 C4.33 1.34 4.66 0.68 5 0 C4.34 6.6 3.68 13.2 3 20 C1.68 20 0.36 20 -1 20 C-1.18451025 6.3667426 -1.18451025 6.3667426 0 0 Z " fill="#785F4F" transform="translate(87,138)"/>
<path d="M0 0 C0.66 0.33 1.32 0.66 2 1 C-0.37879755 3.67614724 -2.72028651 5.45826217 -5.8125 7.1875 C-12.24113756 11.06147375 -16.43994716 17.50813893 -20 24 C-21.17264473 20.48206581 -20.69829829 18.5871526 -19.3359375 15.1875 C-16.60767062 10.72016242 -12.23673642 7.94130889 -8 5 C-7.22011719 4.45601562 -6.44023438 3.91203125 -5.63671875 3.3515625 C-1.77607942 0.79662386 -1.77607942 0.79662386 0 0 Z " fill="#503827" transform="translate(112,29)"/>
<path d="M0 0 C1.42505859 0.2165625 1.42505859 0.2165625 2.87890625 0.4375 C3.53890625 1.4275 4.19890625 2.4175 4.87890625 3.4375 C4.54890625 4.4275 4.21890625 5.4175 3.87890625 6.4375 C3.54890625 5.1175 3.21890625 3.7975 2.87890625 2.4375 C-0.98246836 3.55300822 -3.41630502 4.46223239 -6.12109375 7.4375 C-6.78109375 7.4375 -7.44109375 7.4375 -8.12109375 7.4375 C-8.34796875 8.159375 -8.57484375 8.88125 -8.80859375 9.625 C-10.37731372 12.9865428 -12.47750597 14.85838997 -15.12109375 17.4375 C-15.65734375 18.365625 -16.19359375 19.29375 -16.74609375 20.25 C-17.19984375 20.971875 -17.65359375 21.69375 -18.12109375 22.4375 C-19.11109375 22.4375 -20.10109375 22.4375 -21.12109375 22.4375 C-20.79109375 20.7875 -20.46109375 19.1375 -20.12109375 17.4375 C-19.46109375 17.4375 -18.80109375 17.4375 -18.12109375 17.4375 C-16.58432859 15.95703208 -16.58432859 15.95703208 -14.99609375 14 C-14.37605469 13.27941406 -13.75601563 12.55882812 -13.1171875 11.81640625 C-11.75640989 10.19465759 -10.41593279 8.55570913 -9.09375 6.90234375 C-8.42214844 6.08894531 -7.75054687 5.27554687 -7.05859375 4.4375 C-6.44886719 3.674375 -5.83914062 2.91125 -5.2109375 2.125 C-3.12109375 0.4375 -3.12109375 0.4375 0 0 Z " fill="#A88A77" transform="translate(112.12109375,21.5625)"/>
<path d="M0 0 C0.33 0.66 0.66 1.32 1 2 C2.84969605 2.58161354 2.84969605 2.58161354 5.0625 2.9375 C9.61473459 3.84940597 13.69273681 5.27709472 18 7 C18.33 6.34 18.66 5.68 19 5 C19.99 6.32 20.98 7.64 22 9 C21.34 10.32 20.68 11.64 20 13 C16.74870192 11.88236628 13.99693956 10.41752711 11.125 8.5625 C7.53279662 6.25420201 3.96656288 4.57009781 0 3 C0 2.01 0 1.02 0 0 Z " fill="#725438" transform="translate(56,38)"/>
<path d="M0 0 C0.185625 0.9590625 0.185625 0.9590625 0.375 1.9375 C0.684375 2.9584375 0.684375 2.9584375 1 4 C1.66 4.33 2.32 4.66 3 5 C3 6.98 3 8.96 3 11 C3.66 11.33 4.32 11.66 5 12 C4.85892253 13.45880109 4.71197585 14.91703551 4.5625 16.375 C4.48128906 17.18710938 4.40007812 17.99921875 4.31640625 18.8359375 C4 21 4 21 3 23 C2.34 23 1.68 23 1 23 C0.87625 22.113125 0.7525 21.22625 0.625 20.3125 C-0.19878969 14.53403319 -1.10660675 8.76802439 -2 3 C-1.34 3 -0.68 3 0 3 C0 2.01 0 1.02 0 0 Z " fill="#8E674C" transform="translate(84,108)"/>
<path d="M0 0 C0.66 0.33 1.32 0.66 2 1 C2.99 1.33 3.98 1.66 5 2 C8 3 8 3 10 4 C10 4.66 10 5.32 10 6 C10.66 6.33 11.32 6.66 12 7 C11.67 7.66 11.34 8.32 11 9 C11.99 8.67 12.98 8.34 14 8 C14 8.99 14 9.98 14 11 C14.66 11 15.32 11 16 11 C16 11.66 16 12.32 16 13 C12.72821301 12.36972069 11.66989821 11.74252061 8.875 9.5625 C4.63794616 6.36855527 0.16786905 5.6966745 -5 5 C-4.34 4.01 -3.68 3.02 -3 2 C-2.01 2 -1.02 2 0 2 C0 1.34 0 0.68 0 0 Z " fill="#76563E" transform="translate(61,87)"/>
<path d="M0 0 C6.79138123 0.98783727 12.29100783 6.18358721 17.4375 10.5 C17.1075 11.16 16.7775 11.82 16.4375 12.5 C15.4475 12.83 14.4575 13.16 13.4375 13.5 C12.4475 12.84 11.4575 12.18 10.4375 11.5 C11.0975 11.5 11.7575 11.5 12.4375 11.5 C9.72145285 8.62579877 9.72145285 8.62579877 6.4375 6.5 C6.4375 5.84 6.4375 5.18 6.4375 4.5 C3.7975 4.17 1.1575 3.84 -1.5625 3.5 C-2.5525 4.82 -3.5425 6.14 -4.5625 7.5 C-4.6875 5.125 -4.6875 5.125 -4.5625 2.5 C-2.5625 0.5 -2.5625 0.5 0 0 Z " fill="#896950" transform="translate(58.5625,31.5)"/>
<path d="M0 0 C0.66 0.33 1.32 0.66 2 1 C1.38125 1.2475 0.7625 1.495 0.125 1.75 C-2.45810285 3.26947227 -2.73547387 4.32217995 -4 7 C-5.25501006 8.44808853 -6.51005267 9.89614896 -7.765625 11.34375 C-9.07975333 13.10701079 -9.86957157 14.77602513 -10.6875 16.8125 C-12 20 -12 20 -14 21 C-14.309375 21.99 -14.61875 22.98 -14.9375 24 C-15.288125 24.99 -15.63875 25.98 -16 27 C-16.99 27.33 -17.98 27.66 -19 28 C-18.30546145 24.03819561 -16.4075191 20.76165885 -14.4375 17.3125 C-14.0854248 16.69544189 -13.73334961 16.07838379 -13.37060547 15.44262695 C-10.05892266 9.81129758 -5.99197205 2.99598602 0 0 Z " fill="#BFA58F" transform="translate(109,102)"/>
<path d="M0 0 C0.66 0.33 1.32 0.66 2 1 C2 1.66 2 2.32 2 3 C-3.66725741 7.21749388 -8.10257701 9.26499924 -15.17578125 9.1953125 C-16.33271484 9.18886719 -17.48964844 9.18242188 -18.68164062 9.17578125 C-20.47891602 9.15064453 -20.47891602 9.15064453 -22.3125 9.125 C-23.53001953 9.11597656 -24.74753906 9.10695313 -26.00195312 9.09765625 C-29.00150274 9.07413037 -32.00065044 9.04125653 -35 9 C-35 8.67 -35 8.34 -35 8 C-34.16190796 7.970271 -34.16190796 7.970271 -33.30688477 7.93994141 C-30.72502582 7.8434781 -28.14384608 7.73430188 -25.5625 7.625 C-24.68400391 7.5940625 -23.80550781 7.563125 -22.90039062 7.53125 C-13.80517938 7.12851002 -6.69322884 6.52160759 0 0 Z " fill="#50321F" transform="translate(150,82)"/>
<path d="M0 0 C0 0.33 0 0.66 0 1 C-0.6290625 1.08636719 -1.258125 1.17273437 -1.90625 1.26171875 C-9.56761564 2.51938269 -15.23950633 4.71725078 -20.3125 10.75 C-23.14444499 16.20411627 -25.02008758 21.92454297 -26 28 C-26.33 28 -26.66 28 -27 28 C-26.82529141 19.50280969 -25.41443943 12.86439606 -19.58203125 6.4375 C-13.60408333 1.05253887 -7.75233145 -0.40801744 0 0 Z " fill="#9D836B" transform="translate(44,43)"/>
<path d="M0 0 C0.66 0 1.32 0 2 0 C2.45824881 8.24847863 1.31744501 15.68304307 -4.1875 22.125 C-5.10932964 23.09841622 -6.04122844 24.06294818 -7 25 C-7.99 24.67 -8.98 24.34 -10 24 C-9.60167969 23.5875 -9.20335937 23.175 -8.79296875 22.75 C-2.44447554 15.82998794 -0.62129427 9.25514223 0 0 Z " fill="#5A4430" transform="translate(172,123)"/>
<path d="M0 0 C12.59726895 0.40767861 12.59726895 0.40767861 18 5 C18.78375 5.5775 19.5675 6.155 20.375 6.75 C20.91125 7.1625 21.4475 7.575 22 8 C21.67 8.66 21.34 9.32 21 10 C19.0625 9.6875 19.0625 9.6875 17 9 C16.67 8.01 16.34 7.02 16 6 C14.02 6 12.04 6 10 6 C9.67 5.01 9.34 4.02 9 3 C6.69 3 4.38 3 2 3 C2 2.34 2 1.68 2 1 C1.34 0.67 0.68 0.34 0 0 Z " fill="#8F6A4F" transform="translate(50,98)"/>
<path d="M0 0 C2 2 2 2 2.046875 5.0546875 C1.94890625 6.31539063 1.8509375 7.57609375 1.75 8.875 C1.6991626 9.53959229 1.6483252 10.20418457 1.59594727 10.88891602 C1.08851319 16.98613318 0.15238012 22.99195997 -1 29 C-1.33 29 -1.66 29 -2 29 C-2.21105492 19.10386916 -2.10084738 9.7351767 0 0 Z " fill="#6A4E39" transform="translate(90,67)"/>
<path d="M0 0 C0.66 0.33 1.32 0.66 2 1 C0.7792482 6.08646583 -0.71919558 9.79646933 -4 14 C-4.66 14 -5.32 14 -6 14 C-6.33 15.32 -6.66 16.64 -7 18 C-7.66 18 -8.32 18 -9 18 C-9 16.35 -9 14.7 -9 13 C-8.34 13 -7.68 13 -7 13 C-7 11.68 -7 10.36 -7 9 C-6.01 8.67 -5.02 8.34 -4 8 C-2.87483915 6.16715557 -2.87483915 6.16715557 -2 4 C-1.33333333 2.66666667 -0.66666667 1.33333333 0 0 Z " fill="#865F49" transform="translate(98,20)"/>
<path d="M0 0 C0.66 0 1.32 0 2 0 C2.22615016 6.16259181 1.44149898 11.51972719 0 17.5 C-0.19078125 18.32242187 -0.3815625 19.14484375 -0.578125 19.9921875 C-1.04427304 21.99662407 -1.52102976 23.99858863 -2 26 C-2.33 26 -2.66 26 -3 26 C-3.05394705 23.39555652 -3.09364469 20.79223002 -3.125 18.1875 C-3.14175781 17.44951172 -3.15851563 16.71152344 -3.17578125 15.95117188 C-3.21074628 12.08753574 -3.19397555 10.29096332 -1 7 C-0.60612212 4.67612053 -0.26513915 2.34206251 0 0 Z " fill="#6B503B" transform="translate(91,12)"/>
<path d="M0 0 C3.88065012 3.32627153 6.33441261 7.19359066 8 12 C7.75 15 7.75 15 7 17 C6.566875 16.525625 6.13375 16.05125 5.6875 15.5625 C3.97690387 13.76313043 3.97690387 13.76313043 1 13 C1.33 10.69 1.66 8.38 2 6 C1.34 5.67 0.68 5.34 0 5 C0 3.35 0 1.7 0 0 Z " fill="#855F45" transform="translate(74,110)"/>
<path d="M0 0 C0.99 1.32 1.98 2.64 3 4 C2.01 4.33 1.02 4.66 0 5 C-1.00111137 7.32013056 -1.00111137 7.32013056 -1.625 10.125 C-1.87121094 11.11371094 -2.11742187 12.10242188 -2.37109375 13.12109375 C-3.09077473 16.415534 -3.6277514 19.64976257 -4 23 C-4.33 23 -4.66 23 -5 23 C-7.30735033 13.4821799 -4.9410168 8.13209016 0 0 Z " fill="#8C6446" transform="translate(8,113)"/>
<path d="M0 0 C1.62283593 4.86850779 -0.29238819 9.28505566 -2 14 C-4.125 17 -4.125 17 -6 19 C-6.33 19.99 -6.66 20.98 -7 22 C-7.99 21.01 -8.98 20.02 -10 19 C-9 16 -9 16 -6.5 14.1875 C-3.7422393 12.17698637 -3.7422393 12.17698637 -3.125 8.875 C-2.76931961 6.05665834 -2.76931961 6.05665834 -4 4 C-3.01 4 -2.02 4 -1 4 C-0.67 2.68 -0.34 1.36 0 0 Z " fill="#7D5738" transform="translate(92,45)"/>
<path d="M0 0 C3 1 3 1 6 3 C9.58357241 3.25015873 9.58357241 3.25015873 13 3 C13.33 2.67 13.66 2.34 14 2 C16.67058851 1.85884839 19.32432238 1.95752893 22 2 C21.01 2.99 20.02 3.98 19 5 C18.01 4.67 17.02 4.34 16 4 C15.01 4.495 15.01 4.495 14 5 C11.68917466 5.09735819 9.37537042 5.12977373 7.0625 5.125 C5.81597656 5.12757813 4.56945312 5.13015625 3.28515625 5.1328125 C0 5 0 5 -3 4 C-3 3.34 -3 2.68 -3 2 C-2.01 1.34 -1.02 0.68 0 0 Z " fill="#7D583E" transform="translate(142,146)"/>
<path d="M0 0 C1.65 1.32 3.3 2.64 5 4 C4.67 4.33 4.34 4.66 4 5 C4.66 5.33 5.32 5.66 6 6 C3.20689655 11.5862069 3.20689655 11.5862069 -0.1875 12.75 C-1.0846875 12.87375 -1.0846875 12.87375 -2 13 C-2.99 10.69 -3.98 8.38 -5 6 C-2.525 6.495 -2.525 6.495 0 7 C0 4.69 0 2.38 0 0 Z " fill="#946F52" transform="translate(83,50)"/>
<path d="M0 0 C3.79124747 -0.14714061 7.58174654 -0.23467827 11.375 -0.3125 C12.96634766 -0.3753418 12.96634766 -0.3753418 14.58984375 -0.43945312 C22.2617683 -0.55712068 27.48072825 0.95169838 34 5 C29.54186071 6.46328423 27.20442614 4.91780842 23 3 C18.30825394 1.75857084 13.51177795 1.66976595 8.6875 1.4375 C7.85154297 1.39431641 7.01558594 1.35113281 6.15429688 1.30664062 C4.10303065 1.20114693 2.0515352 1.10012685 0 1 C0 0.67 0 0.34 0 0 Z " fill="#9E8065" transform="translate(126,97)"/>
<path d="M0 0 C0.66 0 1.32 0 2 0 C2.05422947 1.4370809 2.09289723 2.87475462 2.125 4.3125 C2.14820312 5.11300781 2.17140625 5.91351563 2.1953125 6.73828125 C2 9 2 9 0 12 C0.33 12.66 0.66 13.32 1 14 C0.01 14.99 -0.98 15.98 -2 17 C-3.6148266 12.91543861 -4.41164374 10.23493122 -3 6 C-2.34 5.34 -1.68 4.68 -1 4 C-0.3574765 1.93125966 -0.3574765 1.93125966 0 0 Z " fill="#9B785A" transform="translate(86,29)"/>
<path d="M0 0 C2.48919424 0.97202006 3.7448997 1.5326334 5.046875 3.91796875 C7.09849442 10.54014031 8.23004703 15.53990593 5 22 C4.67 18.04 4.34 14.08 4 10 C3.67 10 3.34 10 3 10 C3 8.35 3 6.7 3 5 C1.35 5.33 -0.3 5.66 -2 6 C-1.67 5.34 -1.34 4.68 -1 4 C-0.34 4 0.32 4 1 4 C1 3.34 1 2.68 1 2 C0.34 1.67 -0.32 1.34 -1 1 C-0.67 0.67 -0.34 0.34 0 0 Z " fill="#7D604A" transform="translate(152,53)"/>
<path d="M0 0 C0.66 0 1.32 0 2 0 C1.51851852 5.41666667 1.51851852 5.41666667 -0.5 7.6875 C-5.37299421 10.24582196 -10.66559645 11.71489369 -16 13 C-12.29810279 8.84965443 -8.45500602 7.33997587 -3.36328125 5.34375 C-0.8282583 4.23232252 -0.8282583 4.23232252 -0.16796875 1.84375 C-0.08482422 0.93109375 -0.08482422 0.93109375 0 0 Z " fill="#5D3D2A" transform="translate(120,34)"/>
<path d="M0 0 C1.32 0 2.64 0 4 0 C3.72414063 0.68449219 3.44828125 1.36898437 3.1640625 2.07421875 C1.87623368 5.31107709 0.62335037 8.56021876 -0.625 11.8125 C-1.07101563 12.97394531 -1.51703125 14.13539062 -1.9765625 15.33203125 C-2.31429687 16.21246094 -2.65203125 17.09289062 -3 18 C-3.33 18 -3.66 18 -4 18 C-4.59244521 11.33499135 -2.48322845 6.13047025 0 0 Z " fill="#664A39" transform="translate(94,104)"/>
<path d="M0 0 C0.99 0.33 1.98 0.66 3 1 C2.38125 1.0825 1.7625 1.165 1.125 1.25 C-1.10949248 1.77519225 -1.10949248 1.77519225 -1.90625 3.625 C-2.44765625 4.800625 -2.44765625 4.800625 -3 6 C-4.20269772 8.25301745 -5.41150191 10.50278131 -6.625 12.75 C-6.94984375 13.35199219 -7.2746875 13.95398438 -7.609375 14.57421875 C-8.40570585 16.04977297 -9.20277839 17.52492686 -10 19 C-10.78347427 16.71062713 -11.12854612 15.41234923 -10.3984375 13.0703125 C-4.77929155 2.38964578 -4.77929155 2.38964578 0 0 Z " fill="#A0826B" transform="translate(14,104)"/>
<path d="M0 0 C1.2065625 0.0309375 1.2065625 0.0309375 2.4375 0.0625 C2.7675 2.0425 3.0975 4.0225 3.4375 6.0625 C0.32492431 6.0625 -1.67015685 5.88888376 -4.5625 5.0625 C-3.43829114 0.08386076 -3.43829114 0.08386076 0 0 Z " fill="#7E5A40" transform="translate(112.5625,23.9375)"/>
<path d="M0 0 C5.67023649 1.35005631 8.17957309 3.8157229 12 8 C11 10 11 10 9 11 C9 10.34 9 9.68 9 9 C8.01 8.67 7.02 8.34 6 8 C1.22727273 3.68181818 1.22727273 3.68181818 0 0 Z " fill="#8D6D55" transform="translate(157,102)"/>
<path d="M0 0 C0.66 0.66 1.32 1.32 2 2 C2.66 1.34 3.32 0.68 4 0 C4.33 1.32 4.66 2.64 5 4 C3.02 4.99 3.02 4.99 1 6 C0.13375 5.195625 -0.7325 4.39125 -1.625 3.5625 C-4.62876093 1.03075864 -7.03203262 0.28342624 -11 0 C-11 -0.33 -11 -0.66 -11 -1 C-6.70830186 -2.26226416 -4.09639239 -1.7295879 0 0 Z " fill="#7A553C" transform="translate(78,123)"/>
<path d="M0 0 C2.475 0.99 2.475 0.99 5 2 C5.33 4.64 5.66 7.28 6 10 C4.68 10.33 3.36 10.66 2 11 C0.57741188 7.17679443 -0.24042276 4.08718695 0 0 Z " fill="#7F5839" transform="translate(79,87)"/>
<path d="M0 0 C0 0.66 0 1.32 0 2 C-6.95592374 5.13698522 -12.37256022 6.12927864 -20 6 C-19.34 5.01 -18.68 4.02 -18 3 C-16.08203125 2.8125 -16.08203125 2.8125 -13.8125 3 C-8.55382686 3.20356154 -4.83583846 0 0 0 Z " fill="#7E5B40" transform="translate(147,84)"/>
<path d="M0 0 C0.99 0 1.98 0 3 0 C3 0.66 3 1.32 3 2 C3.99 1.67 4.98 1.34 6 1 C6 1.66 6 2.32 6 3 C6.99 2.67 7.98 2.34 9 2 C11.6875 3.9375 11.6875 3.9375 14 6 C10.30962722 7.37095624 8.29116165 6.60010967 4.75 5.0625 C3.85796875 4.68222656 2.9659375 4.30195312 2.046875 3.91015625 C1.37140625 3.60980469 0.6959375 3.30945312 0 3 C0 2.01 0 1.02 0 0 Z " fill="#825B39" transform="translate(57,37)"/>
<path d="M0 0 C0.66 0.66 1.32 1.32 2 2 C-1.63 2 -5.26 2 -9 2 C-9.66 3.32 -10.32 4.64 -11 6 C-12.29470975 7.37086915 -13.62150897 8.71340837 -15 10 C-15.33 9.34 -15.66 8.68 -16 8 C-11.43081953 0.49348923 -8.49622518 -0.54814356 0 0 Z " fill="#573926" transform="translate(110,121)"/>
<path d="M0 0 C1.45823212 -0.0270043 2.91660675 -0.04639787 4.375 -0.0625 C5.18710937 -0.07410156 5.99921875 -0.08570313 6.8359375 -0.09765625 C9 0 9 0 11 1 C12.99960012 1.039992 15.00047242 1.04346799 17 1 C17 1.66 17 2.32 17 3 C14.91731407 3.08126087 12.83371342 3.13930839 10.75 3.1875 C9.00976562 3.23970703 9.00976562 3.23970703 7.234375 3.29296875 C3.77731593 2.97982934 2.48434437 2.34290892 0 0 Z " fill="#835D43" transform="translate(16,148)"/>
<path d="M0 0 C2.40034102 3.60051153 4.32187705 6.96144535 3.625 11.375 C3.41875 11.91125 3.2125 12.4475 3 13 C2.34 12.34 1.68 11.68 1 11 C0.34 11 -0.32 11 -1 11 C-1.0270043 9.54176788 -1.04639787 8.08339325 -1.0625 6.625 C-1.07410156 5.81289062 -1.08570312 5.00078125 -1.09765625 4.1640625 C-1 2 -1 2 0 0 Z " fill="#806249" transform="translate(81,79)"/>
<path d="M0 0 C0.33 0.99 0.66 1.98 1 3 C-0.36328125 5.41015625 -0.36328125 5.41015625 -2.3125 8.0625 C-3.26576172 9.37927734 -3.26576172 9.37927734 -4.23828125 10.72265625 C-6 13 -6 13 -8 15 C-7.67 12.69 -7.34 10.38 -7 8 C-6.34 8 -5.68 8 -5 8 C-4.731875 7.4225 -4.46375 6.845 -4.1875 6.25 C-2.98280141 3.9674132 -1.59201885 2.0262058 0 0 Z " fill="#573F2E" transform="translate(99,26)"/>
<path d="M0 0 C0.26554687 0.58265625 0.53109375 1.1653125 0.8046875 1.765625 C2.03302996 4.06174228 3.40314939 5.80356018 5.125 7.75 C5.66382812 8.36359375 6.20265625 8.9771875 6.7578125 9.609375 C7.16773437 10.06828125 7.57765625 10.5271875 8 11 C7.01 11.495 7.01 11.495 6 12 C5.46375 11.236875 4.9275 10.47375 4.375 9.6875 C1.78995928 6.76232234 -0.53600613 5.69350811 -4 4 C-4.33 3.01 -4.66 2.02 -5 1 C-2.525 1.495 -2.525 1.495 0 2 C0 1.34 0 0.68 0 0 Z " fill="#6B4730" transform="translate(70,30)"/>
<path d="M0 0 C0.66 0.33 1.32 0.66 2 1 C1.39816251 3.02045442 0.72693904 5.02111039 0 7 C-0.99 7.495 -0.99 7.495 -2 8 C-2.309375 8.99 -2.61875 9.98 -2.9375 11 C-3.288125 11.99 -3.63875 12.98 -4 14 C-4.99 14.33 -5.98 14.66 -7 15 C-6.31238981 11.34435091 -4.74550455 8.48132728 -2.9375 5.25 C-2.11572266 3.77273437 -2.11572266 3.77273437 -1.27734375 2.265625 C-0.64505859 1.14414063 -0.64505859 1.14414063 0 0 Z " fill="#B3967E" transform="translate(97,115)"/>
<path d="M0 0 C3 1 3 1 4.6875 3.75 C5.93950669 6.85020705 6.28970125 8.71671912 6 12 C5.01 12.495 5.01 12.495 4 13 C4 11.35 4 9.7 4 8 C2.68 8 1.36 8 0 8 C0.33 7.34 0.66 6.68 1 6 C0.70630173 4.65737935 0.3721042 3.32303717 0 2 C0 1.34 0 0.68 0 0 Z " fill="#765840" transform="translate(167,111)"/>
<path d="M0 0 C0 3 0 3 -1.9375 5 C-2.618125 5.66 -3.29875 6.32 -4 7 C-4.33 7.99 -4.66 8.98 -5 10 C-5.99 10 -6.98 10 -8 10 C-7.67 8.02 -7.34 6.04 -7 4 C-6.34 4 -5.68 4 -5 4 C-4.34 3.01 -3.68 2.02 -3 1 C-2.01 0.67 -1.02 0.34 0 0 Z " fill="#9D806C" transform="translate(98,49)"/>
<path d="M0 0 C-1.38264837 2.86867231 -2.92148553 5.56024032 -4.625 8.25 C-5.07101563 8.95640625 -5.51703125 9.6628125 -5.9765625 10.390625 C-6.48316406 11.18726563 -6.48316406 11.18726563 -7 12 C-8.11841676 8.64474971 -7.91538821 8.02910146 -6.6875 4.875 C-6.42324219 4.17117187 -6.15898438 3.46734375 -5.88671875 2.7421875 C-4.42401146 -0.13167793 -3.15678333 0 0 0 Z " fill="#5E4733" transform="translate(99,41)"/>
<path d="M0 0 C12.66970387 -0.738041 12.66970387 -0.738041 18 4 C17.01 4.495 17.01 4.495 16 5 C14.07554492 4.27003428 12.15249636 3.53575403 10.2421875 2.76953125 C6.84888337 1.60493035 3.56561066 1.31835809 0 1 C0 0.67 0 0.34 0 0 Z " fill="#94765D" transform="translate(132,44)"/>
<path d="M0 0 C2.64850992 2.64850992 4.33103223 5.66206447 6 9 C5.34 9 4.68 9 4 9 C4.185625 9.556875 4.37125 10.11375 4.5625 10.6875 C5.07551165 13.399133 4.6640724 15.34371039 4 18 C3.67 18 3.34 18 3 18 C2.49645133 15.56318413 1.99703244 13.12564561 1.5 10.6875 C1.35691406 9.99720703 1.21382813 9.30691406 1.06640625 8.59570312 C0.47374956 5.67475227 0 2.98891878 0 0 Z " fill="#987A5F" transform="translate(82,64)"/>
<path d="M0 0 C1.85776765 3.13498292 2.20140476 5.37471432 2 9 C0.125 8.75 0.125 8.75 -2 8 C-3.25 5.9375 -3.25 5.9375 -4 4 C-2.68 2.68 -1.36 1.36 0 0 Z " fill="#836045" transform="translate(83,125)"/>
<path d="M0 0 C0.33 0 0.66 0 1 0 C0.93993922 1.45947705 0.8511311 2.91779272 0.75 4.375 C0.70359375 5.18710938 0.6571875 5.99921875 0.609375 6.8359375 C0 9 0 9 -2.046875 10.2890625 C-3.01367188 10.64097656 -3.01367188 10.64097656 -4 11 C-4.1875 8.125 -4.1875 8.125 -4 5 C-3.01 4.34 -2.02 3.68 -1 3 C-0.67 2.01 -0.34 1.02 0 0 Z " fill="#805D46" transform="translate(91,118)"/>
<path d="M0 0 C0.99 0.495 0.99 0.495 2 1 C2.6328125 3.28515625 2.6328125 3.28515625 3.125 6.0625 C3.29257813 6.98160156 3.46015625 7.90070313 3.6328125 8.84765625 C3.75398438 9.55792969 3.87515625 10.26820313 4 11 C3.01 11.33 2.02 11.66 1 12 C0.36605303 7.95858806 -0.12404452 4.0934693 0 0 Z " fill="#A07A60" transform="translate(84,119)"/>
<path d="M0 0 C0.33 0 0.66 0 1 0 C1 5.61 1 11.22 1 17 C-0.98 17.99 -0.98 17.99 -3 19 C-2.690625 18.0925 -2.38125 17.185 -2.0625 16.25 C-0.52310987 10.95493464 -0.34179698 5.47774637 0 0 Z " fill="#5A3D28" transform="translate(156,61)"/>
<path d="M0 0 C3.43927579 1.2419607 6.25207819 2.55740284 9 5 C9 5.66 9 6.32 9 7 C5.33535945 6.5047783 3.29167646 5.9791794 1 3 C0.67 2.01 0.34 1.02 0 0 Z " fill="#93775C" transform="translate(57,47)"/>
<path d="M0 0 C5.57142857 5.14285714 5.57142857 5.14285714 6 9 C4.68 9.33 3.36 9.66 2 10 C0.0095882 6.51677935 0 4.00290303 0 0 Z " fill="#886A55" transform="translate(76,44)"/>
<path d="M0 0 C0.33 0 0.66 0 1 0 C1.22151549 1.79008467 1.42682213 3.58218162 1.625 5.375 C1.74101563 6.37273437 1.85703125 7.37046875 1.9765625 8.3984375 C1.98429688 9.25695312 1.99203125 10.11546875 2 11 C1.34 11.66 0.68 12.32 0 13 C-0.98248196 8.94726192 -1.16017882 5.16464926 -1 1 C-0.67 0.67 -0.34 0.34 0 0 Z " fill="#8C6F58" transform="translate(3,123)"/>
<path d="M0 0 C5.19822672 1.36144033 8.09543873 3.46730171 12 7 C11.67 7.66 11.34 8.32 11 9 C9.125 8.75 9.125 8.75 7 8 C6.33333333 6.66666667 5.66666667 5.33333333 5 4 C3.36504293 2.94895617 1.70116376 1.94011682 0 1 C0 0.67 0 0.34 0 0 Z " fill="#9C7C69" transform="translate(60,99)"/>
<path d="M0 0 C-2.375 1.5625 -2.375 1.5625 -5 3 C-5.66 2.67 -6.32 2.34 -7 2 C-7.33 2.66 -7.66 3.32 -8 4 C-9.98 4 -11.96 4 -14 4 C-11.61605071 0.72206973 -8.67917602 0.16979401 -4.9375 -0.765625 C-3 -1 -3 -1 0 0 Z " fill="#906B50" transform="translate(126,99)"/>
<path d="M0 0 C0 3 0 3 -2 6 C-3.32 5.67 -4.64 5.34 -6 5 C-6 4.34 -6 3.68 -6 3 C-6.66 2.67 -7.32 2.34 -8 2 C-7.67 1.67 -7.34 1.34 -7 1 C-5 1 -3 1 -1 1 C-0.67 0.67 -0.34 0.34 0 0 Z " fill="#795A44" transform="translate(155,78)"/>
<path d="M0 0 C1.010625 0.0825 2.02125 0.165 3.0625 0.25 C3.7225 1.24 4.3825 2.23 5.0625 3.25 C4.7325 4.24 4.4025 5.23 4.0625 6.25 C3.7325 4.93 3.4025 3.61 3.0625 2.25 C-1.01714281 3.55155006 -1.01714281 3.55155006 -4.9375 5.25 C-3.82553359 0.32557733 -3.82553359 0.32557733 0 0 Z " fill="#9B816C" transform="translate(111.9375,21.75)"/>
<path d="M0 0 C3 0.25 3 0.25 5 2.25 C3 3.25 3 3.25 0.5625 3.0625 C-2.16108958 2.96551891 -2.16108958 2.96551891 -3.8125 5.25 C-4.204375 5.91 -4.59625 6.57 -5 7.25 C-5.125 4.875 -5.125 4.875 -5 2.25 C-3 0.25 -3 0.25 0 0 Z " fill="#9E816D" transform="translate(59,31.75)"/>
<path d="M0 0 C0 0.99 0 1.98 0 3 C-0.78375 3.103125 -1.5675 3.20625 -2.375 3.3125 C-5.33045181 3.77595022 -5.33045181 3.77595022 -7 7 C-7.6875 5.1875 -7.6875 5.1875 -8 3 C-5.85915306 -0.33020635 -3.75910189 -0.30479204 0 0 Z " fill="#9C7F6A" transform="translate(67,22)"/>
<path d="M0 0 C1.32 0.66 2.64 1.32 4 2 C2.35 2 0.7 2 -1 2 C-1.33 4.64 -1.66 7.28 -2 10 C-4 8 -4 8 -4.375 5.5625 C-4 3 -4 3 -2 1.1875 C-1.34 0.795625 -0.68 0.40375 0 0 Z " fill="#9A8164" transform="translate(72,13)"/>
<path d="M0 0 C2.97 0.495 2.97 0.495 6 1 C6.33 2.65 6.66 4.3 7 6 C5.68 6.33 4.36 6.66 3 7 C2.01 4.69 1.02 2.38 0 0 Z " fill="#86654C" transform="translate(78,56)"/>
<path d="M0 0 C0 0.66 0 1.32 0 2 C-0.99 2 -1.98 2 -3 2 C-3.66 5.3 -4.32 8.6 -5 12 C-5.33 12 -5.66 12 -6 12 C-6.08131463 10.56344146 -6.13933559 9.1255517 -6.1875 7.6875 C-6.22230469 6.88699219 -6.25710937 6.08648437 -6.29296875 5.26171875 C-6 3 -6 3 -4.67578125 1.20703125 C-3 0 -3 0 0 0 Z " fill="#9A826A" transform="translate(89,9)"/>
<path d="M0 0 C0.99 0.33 1.98 0.66 3 1 C1.02 3.31 -0.96 5.62 -3 8 C-3.99 7.67 -4.98 7.34 -6 7 C-4.02 4.69 -2.04 2.38 0 0 Z " fill="#513A2C" transform="translate(168,140)"/>
<path d="M0 0 C3.32643967 2.98232523 5.29152862 5.86370087 7 10 C6.67 10.66 6.34 11.32 6 12 C3.32289809 10.66144904 3.04870906 9.27941912 1.875 6.5625 C1.52179688 5.75941406 1.16859375 4.95632812 0.8046875 4.12890625 C0 2 0 2 0 0 Z " fill="#897056" transform="translate(71,60)"/>
<path d="M0 0 C0.99 0.33 1.98 0.66 3 1 C2.67 3.31 2.34 5.62 2 8 C0.68 6.35 -0.64 4.7 -2 3 C-1.34 2.67 -0.68 2.34 0 2 C0 1.34 0 0.68 0 0 Z " fill="#815E49" transform="translate(79,27)"/>
<path d="M0 0 C0.66 0 1.32 0 2 0 C0.84414715 3.91211733 -0.35534962 6.8745041 -3 10 C-2.25 3.375 -2.25 3.375 0 0 Z " fill="#987B63" transform="translate(6,113)"/>
<path d="M0 0 C3.79588866 0.54226981 5.47211993 2.20127563 8 5 C7.01 5.495 7.01 5.495 6 6 C3.875 5.0625 3.875 5.0625 2 4 C2 3.34 2 2.68 2 2 C1.34 2 0.68 2 0 2 C0 1.34 0 0.68 0 0 Z " fill="#94705D" transform="translate(63,34)"/>
<path d="M0 0 C0.66 0 1.32 0 2 0 C3.06652192 2.30368736 4.06421005 4.64018187 5 7 C4.67 7.66 4.34 8.32 4 9 C3.34 9 2.68 9 2 9 C1.34 6.03 0.68 3.06 0 0 Z " fill="#95775E" transform="translate(83,136)"/>
<path d="M0 0 C0.66 0 1.32 0 2 0 C2 0.66 2 1.32 2 2 C2.66 2.33 3.32 2.66 4 3 C4.33 3.66 4.66 4.32 5 5 C4.01 6.485 4.01 6.485 3 8 C0 3.375 0 3.375 0 0 Z " fill="#775A42" transform="translate(5,137)"/>
<path d="M0 0 C1.75 2.125 1.75 2.125 3 4 C2.505 3.71125 2.01 3.4225 1.5 3.125 C-1.91752035 1.58711584 -5.3506202 0.85152195 -9 0 C-9 -0.33 -9 -0.66 -9 -1 C-5.24115217 -2.0441244 -3.25249956 -2.27674969 0 0 Z " fill="#734735" transform="translate(76,123)"/>
<path d="M0 0 C2 1.125 2 1.125 4 3 C4.25 6.1875 4.25 6.1875 4 9 C1.27573689 6.64722731 0.1858237 4.37503669 -1 1 C-0.67 0.67 -0.34 0.34 0 0 Z " fill="#86694F" transform="translate(78,102)"/>
<path d="M0 0 C-1 2 -1 2 -3.375 3.125 C-6 4 -6 4 -9 4 C-8.67 3.01 -8.34 2.02 -8 1 C-5.07175348 0.02391783 -3.04386724 -0.08226668 0 0 Z " fill="#9D816D" transform="translate(120,32)"/>
<path d="M0 0 C0.66 0 1.32 0 2 0 C1.67 1.98 1.34 3.96 1 6 C0.01 6.33 -0.98 6.66 -2 7 C-2 5.35 -2 3.7 -2 2 C-1.34 2 -0.68 2 0 2 C0 1.34 0 0.68 0 0 Z " fill="#AE8D76" transform="translate(91,31)"/>
<path d="M0 0 C0.99 0.99 1.98 1.98 3 3 C1.35 4.32 -0.3 5.64 -2 7 C-2.33 5.35 -2.66 3.7 -3 2 C-2.01 2 -1.02 2 0 2 C0 1.34 0 0.68 0 0 Z " fill="#87664B" transform="translate(89,9)"/>
<path d="M0 0 C1.98 0 3.96 0 6 0 C5.01 0.495 5.01 0.495 4 1 C4 1.66 4 2.32 4 3 C2.35 3.33 0.7 3.66 -1 4 C-0.67 2.68 -0.34 1.36 0 0 Z " fill="#5D3F29" transform="translate(107,91)"/>
<path d="M0 0 C0 0.66 0 1.32 0 2 C-2.8125 3.5625 -2.8125 3.5625 -6 5 C-6.99 4.67 -7.98 4.34 -9 4 C-3.375 0 -3.375 0 0 0 Z " fill="#522C19" transform="translate(113,42)"/>
<path d="M0 0 C0.66 0 1.32 0 2 0 C0.25 5.75 0.25 5.75 -2 8 C-3 5 -3 5 -1.6875 2.3125 C-1.130625 1.549375 -0.57375 0.78625 0 0 Z " fill="#9D836E" transform="translate(103,61)"/>
<path d="M0 0 C1.98 0 3.96 0 6 0 C6.66 1.32 7.32 2.64 8 4 C6.68 4 5.36 4 4 4 C3.67 3.34 3.34 2.68 3 2 C2.01 1.34 1.02 0.68 0 0 Z " fill="#8C6852" transform="translate(71,15)"/>
</svg>
